<?xml version="1.0" encoding="UTF-8"?>
<svg xmlns="http://www.w3.org/2000/svg" xmlns:xlink="http://www.w3.org/1999/xlink" width="14px" height="15px" viewBox="0 0 14 14" version="1.1">
<g id="surface1">
<path style=" stroke:none;fill-rule:nonzero;fill:rgb(0%,0%,0%);fill-opacity:1;" d="M 14 7.160156 C 14 11.027344 11.21875 13.78125 7.113281 13.78125 C 3.179688 13.78125 0 10.75 0 7 C 0 3.25 3.179688 0.21875 7.113281 0.21875 C 9.03125 0.21875 10.644531 0.890625 11.886719 1.992188 L 9.949219 3.769531 C 7.414062 1.4375 2.707031 3.1875 2.707031 7 C 2.707031 9.367188 4.6875 11.28125 7.113281 11.28125 C 9.933594 11.28125 10.988281 9.355469 11.152344 8.359375 L 7.113281 8.359375 L 7.113281 6.027344 L 13.886719 6.027344 C 13.953125 6.375 14 6.707031 14 7.160156 Z M 14 7.160156 "/>
</g>
</svg>
