<?xml version="1.0" encoding="UTF-8"?>
<svg xmlns="http://www.w3.org/2000/svg" xmlns:xlink="http://www.w3.org/1999/xlink" width="70px" height="70px" viewBox="0 0 50 50" version="1.1">
<g id="surface1">
<path style=" stroke:none;fill-rule:nonzero;fill:#f6a937;fill-opacity:1;" d="M 38.578125 27.339844 C 36.660156 24.707031 34.078125 22.71875 31.082031 21.546875 L 31.082031 20.082031 C 31.082031 18.71875 30.347656 17.527344 29.257812 16.875 L 29.257812 7.640625 L 39.019531 7.640625 C 39.476562 7.640625 39.882812 7.359375 40.046875 6.933594 C 40.207031 6.507812 40.085938 6.027344 39.746094 5.722656 L 35.578125 2.039062 C 35.378906 1.859375 35.121094 1.761719 34.851562 1.761719 L 31.082031 1.761719 L 31.082031 1.097656 C 31.082031 0.785156 30.949219 0.488281 30.71875 0.277344 C 30.484375 0.0703125 30.171875 -0.0273438 29.863281 0.0078125 L 9.996094 2.25 C 9.445312 2.3125 9.023438 2.78125 9.023438 3.339844 L 9.023438 6.542969 C 9.023438 7.148438 9.515625 7.640625 10.121094 7.640625 L 17.210938 7.640625 L 17.355469 8.015625 C 18.570312 11.121094 17.832031 14.652344 15.472656 17.007812 C 15.046875 17.4375 15.046875 18.132812 15.472656 18.558594 C 15.6875 18.773438 15.96875 18.878906 16.25 18.878906 C 16.53125 18.878906 16.808594 18.773438 17.023438 18.558594 C 19.890625 15.691406 20.859375 11.449219 19.550781 7.640625 L 20.742188 7.640625 L 20.742188 16.875 C 19.652344 17.527344 18.917969 18.71875 18.917969 20.082031 L 18.917969 21.539062 C 12.472656 24.035156 8.199219 30.234375 8.199219 37.203125 C 8.199219 41.4375 9.777344 45.476562 12.644531 48.585938 C 13.46875 49.484375 14.648438 50 15.878906 50 L 34.121094 50 C 35.355469 50 36.542969 49.476562 37.378906 48.5625 C 40.214844 45.472656 41.785156 41.460938 41.800781 37.265625 C 41.8125 33.679688 40.699219 30.246094 38.578125 27.339844 Z M 34.4375 3.953125 L 36.128906 5.449219 L 31.082031 5.449219 L 31.082031 3.953125 Z M 28.890625 5.449219 L 13.847656 5.449219 L 13.847656 4.023438 L 28.890625 2.324219 Z M 11.214844 4.320312 L 12.203125 4.207031 L 12.203125 5.449219 L 11.214844 5.449219 Z M 27.066406 7.640625 L 27.066406 16.347656 L 22.933594 16.347656 L 22.933594 7.640625 Z M 35.765625 47.082031 C 35.339844 47.542969 34.742188 47.808594 34.121094 47.808594 L 15.878906 47.808594 C 15.261719 47.808594 14.667969 47.550781 14.253906 47.101562 C 11.761719 44.398438 10.390625 40.882812 10.390625 37.203125 C 10.390625 30.910156 14.398438 25.34375 20.359375 23.347656 C 20.808594 23.199219 21.109375 22.777344 21.109375 22.308594 L 21.109375 20.082031 C 21.109375 19.230469 21.800781 18.539062 22.652344 18.539062 L 24.179688 18.539062 L 24.179688 31.097656 L 14.367188 31.097656 C 14.054688 31.097656 13.769531 31.277344 13.628906 31.554688 C 12.765625 33.296875 12.308594 35.25 12.308594 37.203125 C 12.308594 40.308594 13.4375 43.292969 15.492188 45.613281 C 15.648438 45.789062 15.875 45.890625 16.109375 45.890625 L 33.890625 45.890625 C 34.125 45.890625 34.351562 45.789062 34.507812 45.613281 C 36.546875 43.304688 37.679688 40.335938 37.691406 37.253906 C 37.699219 35.246094 37.246094 33.328125 36.351562 31.550781 C 36.210938 31.273438 35.929688 31.097656 35.617188 31.097656 L 25.820312 31.097656 L 25.820312 18.539062 L 27.347656 18.539062 C 28.199219 18.539062 28.890625 19.230469 28.890625 20.082031 L 28.890625 22.316406 C 28.890625 22.785156 29.191406 23.203125 29.636719 23.355469 C 32.476562 24.3125 35.023438 26.1875 36.808594 28.632812 C 38.652344 31.160156 39.621094 34.140625 39.609375 37.257812 C 39.597656 40.90625 38.230469 44.394531 35.765625 47.082031 Z M 25 41.125 C 25.453125 41.125 25.820312 40.757812 25.820312 40.304688 L 25.820312 32.742188 L 35.097656 32.742188 C 35.734375 34.160156 36.054688 35.671875 36.046875 37.246094 C 36.039062 39.808594 35.140625 42.28125 33.511719 44.246094 L 16.488281 44.246094 C 14.851562 42.269531 13.953125 39.785156 13.953125 37.203125 C 13.953125 35.648438 14.265625 34.148438 14.890625 32.742188 L 24.179688 32.742188 L 24.179688 40.304688 C 24.179688 40.757812 24.546875 41.125 25 41.125 Z M 25 41.125 "/>
</g>
</svg>
